<svg width="40" height="40" viewBox="0 0 40 40" fill="none" xmlns="http://www.w3.org/2000/svg">
<rect width="40" height="40" rx="8" fill="white"/>
<path d="M16.1853 16.2197C15.7349 16.6796 15.3123 17.1151 14.8858 17.5465C14.6307 17.807 14.3756 18.0715 14.1164 18.332C13.8334 18.6169 13.4467 18.625 13.1876 18.3605C12.9285 18.0959 12.9365 17.7011 13.2195 17.4122C14.26 16.3499 15.3004 15.2876 16.3408 14.2254C16.6358 13.9242 17.0065 13.9242 17.3015 14.2294C18.3379 15.2876 19.3744 16.3458 20.4108 17.404C20.6899 17.6889 20.7018 18.0878 20.4427 18.3523C20.1836 18.621 19.7969 18.6088 19.5139 18.3198C18.8681 17.6645 18.2263 17.0052 17.5845 16.3499C17.5526 16.3174 17.5287 16.2726 17.4889 16.2197C17.445 16.3092 17.457 16.3662 17.457 16.4191C17.457 19.6914 17.457 22.9677 17.457 26.24C17.457 26.3906 17.445 26.533 17.3733 26.6673C17.2337 26.9197 16.9467 27.0458 16.6717 26.9848C16.4046 26.9237 16.1973 26.6714 16.1814 26.3865C16.1774 26.3295 16.1814 26.2766 16.1814 26.2196C16.1814 22.9555 16.1814 19.6914 16.1814 16.4313C16.1853 16.3703 16.1853 16.3174 16.1853 16.2197Z" fill="#EC283D"/>
<path d="M22.5435 24.73C22.5435 24.669 22.5435 24.6079 22.5435 24.5509C22.5435 21.2949 22.5435 18.0349 22.5435 14.7789C22.5435 14.6609 22.5435 14.5469 22.5874 14.4329C22.695 14.1318 22.982 13.9649 23.3009 14.0137C23.58 14.0585 23.8032 14.319 23.8191 14.6161C23.8231 14.6731 23.8191 14.726 23.8191 14.783C23.8191 18.0512 23.8191 21.3194 23.8191 24.5876C23.8191 24.6405 23.8191 24.6934 23.8191 24.787C23.9148 24.6852 23.9866 24.6079 24.0583 24.5347C24.6722 23.9079 25.2861 23.277 25.904 22.6503C26.0913 22.459 26.3225 22.3938 26.5737 22.4834C26.8248 22.5729 26.9683 22.7683 26.9962 23.0369C27.0201 23.2608 26.9285 23.4398 26.777 23.5945C26.2946 24.0829 25.8123 24.5754 25.3339 25.0678C24.7878 25.6254 24.2457 26.1789 23.6995 26.7365C23.3607 27.0825 23.0099 27.0825 22.6751 26.7406C21.6466 25.6905 20.6141 24.6405 19.5857 23.5864C19.2548 23.2445 19.3226 22.7317 19.7212 22.5241C19.9803 22.3898 20.2554 22.4386 20.4826 22.6706C21.1284 23.3259 21.7702 23.9811 22.412 24.6405C22.4439 24.673 22.4678 24.7219 22.4917 24.7626C22.5116 24.7585 22.5276 24.7422 22.5435 24.73Z" fill="#EC283D"/>
</svg>
