<svg width="12" height="11" viewBox="0 0 12 11" fill="none" xmlns="http://www.w3.org/2000/svg">
<path d="M6.00011 3.18897C7.94701 3.18897 9.89722 3.18897 11.8441 3.18572C11.9801 3.18572 12 3.22474 12 3.34506C12 5.48155 12 7.61478 12 9.74801C12 10.4537 11.476 10.9772 10.7529 10.9967C10.7131 10.9967 10.67 10.9967 10.6302 10.9967C7.46277 10.9967 4.29202 10.9902 1.12458 11C0.375009 11.0032 0.00685621 10.5155 0.00685621 9.91386C0.00353952 7.70258 0.00685622 5.49455 0.00353954 3.28328C0.00353954 3.18247 0.0499731 3.18572 0.12294 3.18572C2.07979 3.19223 4.03995 3.18897 6.00011 3.18897ZM5.86081 9.34478C6.01338 9.34478 6.16595 9.34803 6.31851 9.34478C6.50756 9.34153 6.61038 9.25698 6.61701 9.07487C6.62697 8.75944 6.62697 8.44401 6.61701 8.12858C6.6137 7.95623 6.49761 7.84891 6.32183 7.84566C6.00674 7.83916 5.69498 7.83916 5.37989 7.84566C5.20079 7.84891 5.09134 7.96598 5.08802 8.14484C5.08471 8.44401 5.08471 8.74318 5.08802 9.04235C5.09134 9.23096 5.20742 9.34153 5.39979 9.34478C5.55236 9.34803 5.70824 9.34803 5.86081 9.34478ZM8.84915 4.54826C8.69658 4.54826 8.54401 4.54501 8.39144 4.54826C8.20903 4.55151 8.08631 4.65232 8.07967 4.82792C8.06972 5.1401 8.06972 5.45228 8.07967 5.76446C8.08299 5.93031 8.18912 6.04087 8.36159 6.04737C8.68663 6.05713 9.01498 6.05713 9.34002 6.04737C9.51912 6.04087 9.60867 5.94006 9.60867 5.76446C9.61198 5.46204 9.61198 5.15636 9.60867 4.85393C9.60535 4.66858 9.48927 4.55801 9.29358 4.55476C9.14433 4.54826 8.9984 4.54826 8.84915 4.54826ZM8.84251 9.34803C8.98845 9.34803 9.13106 9.34803 9.277 9.34803C9.28363 9.34803 9.29358 9.34803 9.30022 9.34803C9.50253 9.34153 9.60535 9.24722 9.60535 9.04886C9.60867 8.75294 9.60867 8.45702 9.60535 8.16109C9.60535 7.96923 9.4959 7.85217 9.30353 7.84891C8.99508 7.84241 8.68331 7.84241 8.37486 7.84891C8.19244 7.85217 8.07967 7.96273 8.07636 8.14158C8.06972 8.44401 8.06972 8.74968 8.07636 9.05211C8.07967 9.24072 8.20239 9.34478 8.39476 9.34803C8.54733 9.34803 8.69326 9.34803 8.84251 9.34803ZM5.85418 4.54826C5.70493 4.54826 5.55567 4.54826 5.40642 4.54826C5.20411 4.55151 5.09134 4.65882 5.08802 4.85393C5.08471 5.14986 5.08471 5.44578 5.08802 5.7417C5.08802 5.92055 5.19084 6.04087 5.37326 6.04412C5.69829 6.05388 6.02664 6.05063 6.35168 6.04087C6.52083 6.03437 6.61038 5.94657 6.6137 5.77747C6.62365 5.45878 6.62365 5.13685 6.6137 4.81816C6.60707 4.64907 6.48766 4.54826 6.31188 4.54501C6.15931 4.54826 6.00674 4.54826 5.85418 4.54826ZM2.13617 8.59685C2.13617 8.74318 2.13617 8.88951 2.13617 9.03585C2.13949 9.23096 2.25225 9.34803 2.45126 9.34803C2.73981 9.35128 3.02836 9.35128 3.32023 9.34803C3.52586 9.34478 3.66185 9.22771 3.66848 9.02935C3.67843 8.73343 3.67511 8.4375 3.66848 8.14158C3.66516 7.96273 3.5524 7.85217 3.37329 7.84891C3.05821 7.84241 2.74644 7.84241 2.43135 7.84891C2.25225 7.85217 2.1428 7.97248 2.13949 8.14809C2.13285 8.29442 2.13617 8.44401 2.13617 8.59685ZM2.90232 4.54826C2.75307 4.54826 2.60382 4.54826 2.45457 4.54826C2.25225 4.55151 2.13949 4.66207 2.13617 4.85719C2.13285 5.14986 2.13285 5.43927 2.13617 5.73194C2.13617 5.9238 2.2423 6.04087 2.43467 6.04737C2.73649 6.05388 3.03831 6.05388 3.34013 6.04737C3.5325 6.04087 3.66185 5.92055 3.66516 5.73194C3.67511 5.43277 3.6718 5.1336 3.66516 4.83117C3.65853 4.64907 3.53913 4.54826 3.34676 4.54826C3.19751 4.54826 3.04826 4.54826 2.90232 4.54826Z" fill="#DAACAE"/>
<path d="M5.98021 2.42478C4.03332 2.42478 2.0831 2.42478 0.136207 2.42803C0.030073 2.42803 -0.00309386 2.40852 0.000222823 2.29796C0.0068562 1.89798 0.000222836 1.49475 0.00353952 1.09476C0.00685621 0.733806 0.129574 0.418374 0.428076 0.187491C0.587277 0.0639193 0.776328 0.00863731 0.981962 0.00538544C1.31695 0.00538544 1.65193 0.0086373 1.98692 0.00213355C2.07315 0.00213355 2.09969 0.0216448 2.09637 0.109446C2.08974 0.437885 2.09305 0.766325 2.09637 1.09476C2.09969 1.27362 2.20914 1.41345 2.37165 1.45897C2.52091 1.498 2.68674 1.43946 2.77629 1.31589C2.83267 1.2411 2.84262 1.1533 2.84262 1.06225C2.84262 0.746814 2.84594 0.42813 2.83931 0.112697C2.83931 0.0281486 2.85921 0.00538544 2.94876 0.00538544C4.87244 0.00863731 6.79612 0.00863731 8.7198 0.00538544C8.7994 0.00538544 8.82593 0.0248967 8.82261 0.106194C8.8193 0.434633 8.8193 0.763073 8.82261 1.09151C8.82593 1.27362 8.92875 1.4102 9.09126 1.45897C9.2372 1.50125 9.40635 1.44597 9.49922 1.3224C9.55892 1.24435 9.57218 1.1533 9.57218 1.05574C9.57218 0.733806 9.57218 0.415122 9.57218 0.0931862C9.57218 0.0509117 9.55892 0.00213356 9.6352 0.00538544C10.0564 0.0183929 10.481 -0.0271333 10.8989 0.0281486C11.4196 0.096438 11.8706 0.509426 11.9502 0.977697C11.9801 1.14679 11.9602 1.31914 11.9602 1.48824C11.9635 1.76465 11.9569 2.04106 11.9635 2.31422C11.9668 2.40852 11.9403 2.42803 11.8474 2.42803C10.7397 2.42478 9.63188 2.42478 8.52079 2.42478C7.67836 2.42478 6.82928 2.42478 5.98021 2.42478Z" fill="#DAACAE"/>
</svg>
