<svg width="19" height="16" viewBox="0 0 19 16" fill="none" xmlns="http://www.w3.org/2000/svg">
<path d="M18.2812 7.38421C18.185 7.47562 18.1658 7.60553 18.1129 7.71619C17.5163 9.04892 16.6598 10.1844 15.558 11.137C15.4763 11.2044 15.4378 11.1851 15.3752 11.1226C14.6391 10.3817 13.903 9.64071 13.1572 8.90939C13.085 8.84203 13.0754 8.7843 13.1091 8.69769C13.5084 7.58628 13.4218 6.50373 12.9022 5.44525C12.142 3.91044 10.3233 2.98666 8.649 3.28015C8.38437 3.32827 8.12456 3.39081 7.86956 3.48223C7.80702 3.50147 7.76371 3.5111 7.71079 3.46298C7.15268 2.89525 6.58975 2.33232 6.01721 1.75497C6.46466 1.601 6.9073 1.46148 7.36438 1.37006C9.51984 0.951477 11.5935 1.21129 13.5565 2.18798C15.6687 3.24166 17.1987 4.86789 18.1513 7.03298C18.1898 7.11477 18.2043 7.211 18.2764 7.27354C18.2812 7.31685 18.2812 7.35053 18.2812 7.38421Z" fill="#DAACAE"/>
<path d="M16.6358 14.4809C16.6069 14.5098 16.5829 14.5386 16.5588 14.5627C16.2701 14.8514 15.9718 15.14 15.688 15.4335C15.6062 15.5153 15.5677 15.4961 15.5003 15.4287C14.6631 14.5819 13.8163 13.7448 12.9792 12.898C12.8926 12.8114 12.8252 12.7921 12.7097 12.8402C11.3481 13.3647 9.93843 13.5667 8.48541 13.4417C6.69079 13.2877 5.05494 12.6911 3.5923 11.623C2.10561 10.5356 1.01825 9.14034 0.306176 7.44675C0.267685 7.35534 0.277308 7.28798 0.310987 7.20138C0.946081 5.67619 1.90353 4.39638 3.18334 3.35713C3.30362 3.26091 3.294 3.2128 3.19296 3.11176C2.53863 2.46704 1.8891 1.8127 1.23476 1.15836C1.07599 0.99959 1.07599 0.99959 1.23957 0.836005C1.48976 0.585817 1.74476 0.345251 1.98532 0.0854401C2.08636 -0.0252202 2.1441 -0.0300315 2.25476 0.0806287C4.4391 2.26978 6.62343 4.45893 8.81258 6.64326C11.3818 9.21251 13.9463 11.7817 16.5155 14.351C16.554 14.3943 16.5925 14.4376 16.6358 14.4809ZM5.60824 5.53185C5.12711 6.5326 5.04051 7.53817 5.36768 8.56298C6.10381 10.8724 8.66824 12.0608 10.8959 11.0697C11.0643 10.9975 11.0402 10.959 10.9296 10.8484C10.5928 10.5212 10.2608 10.1892 9.93362 9.85241C9.83739 9.75137 9.74117 9.72732 9.61126 9.75137C9.31296 9.80911 9.01466 9.78986 8.72117 9.71769C7.42692 9.40015 6.64268 8.22137 6.84956 6.90789C6.85919 6.84534 6.87362 6.79241 6.81589 6.73468C6.41655 6.34496 6.02202 5.94562 5.60824 5.53185Z" fill="#DAACAE"/>
<path d="M11.7282 7.44194C10.8622 6.5759 10.025 5.73392 9.16862 4.88232C9.7989 4.84864 10.357 5.04109 10.8381 5.44524C11.4492 5.95524 11.7282 6.62402 11.7282 7.44194Z" fill="#DAACAE"/>
</svg>
