<svg width="18" height="16" viewBox="0 0 18 16" fill="none" xmlns="http://www.w3.org/2000/svg">
<path d="M9.00017 4.63851C11.9205 4.63851 14.8458 4.63851 17.7662 4.63378C17.9701 4.63378 18 4.69054 18 4.86555C18 7.97316 18 11.076 18 14.1789C18 15.2053 17.2139 15.9669 16.1294 15.9952C16.0697 15.9952 16.005 15.9952 15.9453 15.9952C11.1942 15.9952 6.43803 15.9858 1.68687 16C0.562513 16.0047 0.0102843 15.2952 0.0102843 14.4202C0.00530928 11.2038 0.0102843 7.99208 0.0053093 4.77568C0.0053093 4.62905 0.0749597 4.63378 0.18441 4.63378C3.11968 4.64324 6.05992 4.63851 9.00017 4.63851ZM8.79121 13.5924C9.02007 13.5924 9.24892 13.5971 9.47777 13.5924C9.76135 13.5877 9.91557 13.4647 9.92552 13.1998C9.94045 12.741 9.94045 12.2822 9.92552 11.8234C9.92055 11.5727 9.74642 11.4166 9.48274 11.4119C9.01012 11.4024 8.54246 11.4024 8.06984 11.4119C7.80118 11.4166 7.63701 11.5869 7.63203 11.847C7.62706 12.2822 7.62706 12.7174 7.63203 13.1525C7.63701 13.4269 7.81113 13.5877 8.09969 13.5924C8.32854 13.5971 8.56236 13.5971 8.79121 13.5924ZM13.2737 6.61565C13.0449 6.61565 12.816 6.61092 12.5872 6.61565C12.3135 6.62038 12.1295 6.76701 12.1195 7.02243C12.1046 7.47651 12.1046 7.93059 12.1195 8.38467C12.1245 8.6259 12.2837 8.78672 12.5424 8.79618C13.0299 8.81037 13.5225 8.81037 14.01 8.79618C14.2787 8.78672 14.413 8.64009 14.413 8.38467C14.418 7.94478 14.418 7.50016 14.413 7.06027C14.408 6.79066 14.2339 6.62984 13.9404 6.62511C13.7165 6.61565 13.4976 6.61565 13.2737 6.61565ZM13.2638 13.5971C13.4827 13.5971 13.6966 13.5971 13.9155 13.5971C13.9254 13.5971 13.9404 13.5971 13.9503 13.5971C14.2538 13.5877 14.408 13.4505 14.408 13.162C14.413 12.7315 14.413 12.3011 14.408 11.8707C14.408 11.5916 14.2439 11.4213 13.9553 11.4166C13.4926 11.4071 13.025 11.4071 12.5623 11.4166C12.2887 11.4213 12.1195 11.5822 12.1145 11.8423C12.1046 12.2822 12.1046 12.7268 12.1145 13.1667C12.1195 13.441 12.3036 13.5924 12.5921 13.5971C12.821 13.5971 13.0399 13.5971 13.2638 13.5971ZM8.78126 6.61565C8.55739 6.61565 8.33351 6.61565 8.10964 6.61565C7.80616 6.62038 7.63701 6.77647 7.63203 7.06027C7.62706 7.4907 7.62706 7.92113 7.63203 8.35156C7.63203 8.61171 7.78626 8.78672 8.05989 8.79145C8.54744 8.80564 9.03997 8.80091 9.52752 8.78672C9.78125 8.77726 9.91557 8.64955 9.92055 8.40359C9.93547 7.94005 9.93547 7.47178 9.92055 7.00824C9.9106 6.76228 9.7315 6.61565 9.46782 6.61092C9.23897 6.61565 9.01012 6.61565 8.78126 6.61565ZM3.20425 12.5045C3.20425 12.7174 3.20425 12.9302 3.20425 13.1431C3.20923 13.4269 3.37838 13.5971 3.67688 13.5971C4.10971 13.6019 4.54254 13.6019 4.98034 13.5971C5.28879 13.5924 5.49277 13.4221 5.50272 13.1336C5.51764 12.7032 5.51267 12.2727 5.50272 11.8423C5.49774 11.5822 5.32859 11.4213 5.05994 11.4166C4.58731 11.4071 4.11966 11.4071 3.64703 11.4166C3.37838 11.4213 3.2142 11.5963 3.20923 11.8518C3.19928 12.0646 3.20425 12.2822 3.20425 12.5045ZM4.35349 6.61565C4.12961 6.61565 3.90573 6.61565 3.68186 6.61565C3.37838 6.62038 3.20923 6.7812 3.20425 7.065C3.19928 7.4907 3.19928 7.91167 3.20425 8.33737C3.20425 8.61644 3.36346 8.78672 3.65201 8.79618C4.10474 8.80564 4.55746 8.80564 5.01019 8.79618C5.29874 8.78672 5.49277 8.61171 5.49774 8.33737C5.51267 7.90221 5.50769 7.46705 5.49774 7.02716C5.48779 6.76228 5.30869 6.61565 5.02014 6.61565C4.79626 6.61565 4.57239 6.61565 4.35349 6.61565Z" fill="#D9D9D9"/>
<path d="M8.97032 3.52696C6.04997 3.52696 3.12465 3.52696 0.204311 3.53169C0.0451095 3.53169 -0.0046408 3.50331 0.000334235 3.34249C0.0102843 2.7607 0.000334254 2.17418 0.00530929 1.59238C0.0102843 1.06735 0.194361 0.608544 0.642113 0.272714C0.880915 0.0929735 1.16449 0.0125634 1.47294 0.00783336C1.97542 0.00783336 2.4779 0.0125633 2.98038 0.00310334C3.10973 0.00310334 3.14953 0.0314834 3.14455 0.159194C3.1346 0.636924 3.13958 1.11465 3.14455 1.59238C3.14953 1.85253 3.31371 2.05592 3.55748 2.12214C3.78136 2.1789 4.03011 2.09377 4.16444 1.91402C4.24901 1.80523 4.26394 1.67752 4.26394 1.54508C4.26394 1.08627 4.26891 0.622734 4.25896 0.163924C4.25896 0.0409434 4.28881 0.00783336 4.42314 0.00783336C7.30866 0.0125634 10.1942 0.0125634 13.0797 0.00783336C13.1991 0.00783336 13.2389 0.0362134 13.2339 0.154463C13.2289 0.632194 13.2289 1.10992 13.2339 1.58765C13.2389 1.85253 13.3931 2.05119 13.6369 2.12214C13.8558 2.18363 14.1095 2.10323 14.2488 1.92348C14.3384 1.80996 14.3583 1.67752 14.3583 1.53562C14.3583 1.06735 14.3583 0.603814 14.3583 0.135543C14.3583 0.0740535 14.3384 0.00310336 14.4528 0.00783336C15.0846 0.0267534 15.7214 -0.0394666 16.3483 0.0409434C17.1294 0.140273 17.806 0.740984 17.9254 1.4221C17.9701 1.66806 17.9403 1.91875 17.9403 2.16472C17.9453 2.56677 17.9353 2.96882 17.9453 3.36614C17.9502 3.50331 17.9104 3.53169 17.7711 3.53169C16.1095 3.52696 14.4478 3.52696 12.7812 3.52696C11.5175 3.52696 10.2439 3.52696 8.97032 3.52696Z" fill="#D9D9D9"/>
</svg>
