<svg width="40" height="40" viewBox="0 0 40 40" fill="none" xmlns="http://www.w3.org/2000/svg">
<rect width="40" height="40" rx="8" fill="white"/>
<path d="M28.9991 14.3889C28.9818 15.4291 28.6465 16.2556 27.97 16.9376C26.5709 18.3419 25.1659 19.7405 23.761 21.1392C21.5756 23.3238 19.3902 25.5141 17.2047 27.6987C17.0891 27.8143 16.9561 27.8837 16.7942 27.9183C15.158 28.2709 13.5161 28.6234 11.8799 28.9817C11.348 29.0973 10.9028 28.6465 11.0184 28.1206C11.3769 26.4851 11.7296 24.8495 12.0765 23.2082C12.1112 23.0463 12.1805 22.9134 12.2962 22.7978C15.1812 19.9139 18.072 17.03 20.957 14.1519C21.7259 13.3832 22.4602 12.5741 23.2812 11.8575C25.3105 10.089 28.4325 11.2044 28.9355 13.8456C28.9818 14.0479 29.0049 14.2559 28.9991 14.3889ZM12.6142 27.3693C12.6431 27.3751 12.6546 27.3866 12.6662 27.3809C13.8341 27.1324 15.0019 26.8781 16.1698 26.6295C16.297 26.6007 16.3895 26.5486 16.482 26.4562C19.13 23.8034 21.7837 21.1565 24.4375 18.5095C24.5531 18.394 24.5473 18.3419 24.4375 18.2264C23.5529 17.3479 22.6683 16.4694 21.7953 15.5794C21.6681 15.4523 21.6103 15.4523 21.4831 15.5794C18.997 18.0761 16.5051 20.5728 14.0017 23.0521C13.597 23.4509 13.279 23.8555 13.2443 24.4392C13.2328 24.5837 13.1865 24.7224 13.1576 24.8611C12.9668 25.7048 12.7934 26.5371 12.6142 27.3693ZM27.6115 14.5276C27.6173 13.6433 27.1259 12.8804 26.3859 12.5684C25.5996 12.2331 24.6976 12.395 24.1021 12.9787C23.6454 13.4295 23.1944 13.886 22.7377 14.3311C22.6452 14.4235 22.6163 14.4755 22.7261 14.5854C23.628 15.4754 24.5242 16.377 25.4203 17.2728C25.5128 17.371 25.5649 17.3883 25.6689 17.2785C26.1141 16.8162 26.5651 16.3596 27.0218 15.9088C27.4208 15.51 27.5942 15.0188 27.6115 14.5276Z" fill="#EC283D"/>
</svg>
