<svg width="13" height="12" viewBox="0 0 13 12" fill="none" xmlns="http://www.w3.org/2000/svg">
<path d="M5.32231 12C5.30665 11.9591 5.26282 11.9654 5.23464 11.9559C4.74932 11.8175 4.41429 11.3863 4.41116 10.8795C4.40802 9.61426 4.40489 8.35215 4.41116 7.0869C4.41429 6.47001 4.90587 5.97586 5.5227 5.96957C5.9047 5.96327 6.28669 5.96327 6.67182 5.96957C7.28865 5.97901 7.78024 6.46686 7.78337 7.0869C7.78963 8.35215 7.78963 9.61426 7.78337 10.8795C7.78024 11.4335 7.39198 11.8835 6.84716 11.978C6.83777 11.978 6.83151 11.9906 6.82524 12C6.32427 12 5.82329 12 5.32231 12Z" fill="#C6C6C6"/>
<path d="M0.0996094 8.39622C0.140314 8.37419 0.134052 8.33012 0.143445 8.2955C0.278083 7.82654 0.703915 7.48976 1.18924 7.48032C1.58689 7.47403 1.98454 7.47403 2.38532 7.48032C2.97397 7.49291 3.46556 7.98076 3.47182 8.57247C3.48121 9.34988 3.48121 10.1273 3.47182 10.9047C3.46556 11.4429 3.07104 11.8867 2.53562 11.978C2.52622 11.978 2.51996 11.9906 2.5137 12C2.01272 12 1.51487 12 1.0139 12C1.0045 11.9622 0.970059 11.9717 0.948142 11.9622C0.528572 11.8395 0.259296 11.5688 0.137183 11.1471C0.130921 11.125 0.137183 11.0873 0.10274 11.081C0.0996094 10.1871 0.0996094 9.29008 0.0996094 8.39622Z" fill="#C6C6C6"/>
<path d="M9.63386 12C9.6182 11.9591 9.57436 11.9654 9.54618 11.9559C9.06086 11.8175 8.72583 11.3863 8.7227 10.8795C8.71957 10.1179 8.71644 9.35618 8.7227 8.59451C8.72583 7.97761 9.22055 7.48347 9.83425 7.47717C10.2162 7.47088 10.5982 7.47088 10.9834 7.47717C11.6002 7.48662 12.0887 7.97447 12.0949 8.59451C12.1012 9.35618 12.1012 10.1179 12.0949 10.8795C12.0918 11.4335 11.7035 11.8835 11.1587 11.978C11.1493 11.978 11.1431 11.9906 11.1368 12C10.6327 12 10.1348 12 9.63386 12Z" fill="#C6C6C6"/>
<path d="M0.0996094 3.40443C0.209198 3.18726 0.387672 3.11801 0.619375 3.14005C0.763406 3.15264 0.907437 3.14319 1.05147 3.14319C1.24873 3.14005 1.37397 3.04877 1.4366 2.85993C1.49296 2.68997 1.54618 2.51686 1.60254 2.3469C1.66517 2.15491 1.80294 2.04475 1.97515 2.04475C2.14736 2.04475 2.282 2.15491 2.34462 2.35005C2.40098 2.51686 2.45108 2.68367 2.50744 2.85048C2.57632 3.05192 2.69844 3.14005 2.90822 3.14319C3.06791 3.14319 3.22759 3.14319 3.38728 3.14319C3.63151 3.14319 3.76615 3.22188 3.82564 3.39813C3.88513 3.57754 3.82251 3.72546 3.62211 3.87339C3.49374 3.96781 3.36223 4.06224 3.23386 4.15666C3.06164 4.2857 3.01468 4.42734 3.08043 4.63192C3.13366 4.80503 3.19315 4.97499 3.24638 5.14495C3.30587 5.33064 3.26204 5.47857 3.12114 5.58558C2.9771 5.6926 2.81742 5.6926 2.6546 5.57614C2.50431 5.46913 2.36027 5.35897 2.20998 5.25196C2.04716 5.1355 1.89687 5.13865 1.73405 5.25511C1.58376 5.36212 1.4366 5.47228 1.28943 5.57929C1.12975 5.69259 0.979453 5.69574 0.835422 5.59188C0.69139 5.48801 0.644423 5.33379 0.703915 5.14495C0.754012 4.98128 0.807241 4.81762 0.86047 4.65395C0.932486 4.42419 0.88865 4.28885 0.694521 4.14407C0.628768 4.09686 0.559883 4.04965 0.49413 3.99929C0.350099 3.89542 0.196674 3.801 0.0996094 3.64363C0.0996094 3.5618 0.0996094 3.48311 0.0996094 3.40443Z" fill="#C6C6C6"/>
<path d="M4.53014 1.63873C4.75245 1.63873 4.97476 1.63559 5.19707 1.64188C5.27221 1.64188 5.30352 1.623 5.32544 1.54746C5.45382 1.12885 5.59159 0.713395 5.72622 0.297937C5.80137 0.0681764 5.98298 -0.0419828 6.19276 0.0146705C6.34305 0.0555868 6.42446 0.162599 6.4683 0.307379C6.5998 0.71969 6.73757 1.132 6.86595 1.54746C6.891 1.62614 6.92544 1.64503 7.00372 1.64503C7.42955 1.64188 7.85538 1.64188 8.28121 1.64188C8.50665 1.64188 8.64442 1.72686 8.70078 1.90626C8.75714 2.08252 8.69452 2.23045 8.50979 2.36578C8.16536 2.61758 7.82407 2.86937 7.47652 3.11801C7.41703 3.16208 7.40137 3.1967 7.42642 3.27224C7.56732 3.69399 7.70196 4.11889 7.8366 4.54379C7.91174 4.78299 7.7865 5.00016 7.5548 5.04738C7.42955 5.07256 7.32622 5.02534 7.22916 4.95295C6.87847 4.69487 6.52779 4.44307 6.18024 4.18184C6.12074 4.13777 6.08004 4.13463 6.02055 4.18184C5.66986 4.44307 5.31605 4.70116 4.96223 4.9561C4.80255 5.07256 4.64912 5.082 4.50509 4.98758C4.35793 4.89001 4.30157 4.72634 4.35793 4.54379C4.48943 4.12519 4.62407 3.70973 4.76184 3.29427C4.79002 3.20614 4.78376 3.15893 4.70235 3.10228C4.35793 2.85993 4.01977 2.60813 3.67847 2.35949C3.5 2.23045 3.43738 2.07937 3.49061 1.90941C3.54697 1.73001 3.68474 1.64188 3.90705 1.64188C4.1137 1.63873 4.32348 1.63873 4.53014 1.63873Z" fill="#C6C6C6"/>
<path d="M9.00763 3.14005C9.10783 3.14005 9.21115 3.14319 9.31135 3.14005C9.49609 3.13375 9.62133 3.04248 9.68082 2.86937C9.74031 2.69626 9.79354 2.52001 9.8499 2.34375C9.91253 2.15176 10.0503 2.0416 10.2225 2.0416C10.3947 2.0416 10.5294 2.15176 10.592 2.3469C10.6452 2.51056 10.6953 2.67423 10.7517 2.8379C10.8237 3.05192 10.9427 3.1369 11.1712 3.14005C11.3466 3.14005 11.5219 3.14005 11.6973 3.14005C11.8883 3.14319 12.0198 3.23132 12.0761 3.39813C12.1294 3.5618 12.0793 3.71602 11.9258 3.83248C11.7818 3.93949 11.6346 4.04335 11.4906 4.15036C11.3059 4.2857 11.262 4.42104 11.3341 4.64136C11.3873 4.80817 11.4436 4.97499 11.4937 5.14495C11.5501 5.3275 11.5063 5.48172 11.3685 5.58558C11.2245 5.6926 11.0648 5.6926 10.9051 5.57614C10.7548 5.46913 10.6108 5.35897 10.4605 5.25196C10.2977 5.1355 10.1474 5.13865 9.98454 5.25511C9.83425 5.36212 9.68709 5.47228 9.53992 5.57929C9.38024 5.69259 9.22994 5.69574 9.08591 5.59188C8.94188 5.48801 8.89491 5.33379 8.9544 5.1418C9.00763 4.96869 9.06712 4.79873 9.12035 4.62877C9.18298 4.43048 9.13601 4.28885 8.97319 4.16295C8.82916 4.05594 8.682 3.95208 8.53797 3.84507C8.37515 3.72546 8.31879 3.57439 8.37202 3.40758C8.42838 3.23447 8.55988 3.14634 8.76967 3.14319C8.84168 3.14005 8.92622 3.14005 9.00763 3.14005Z" fill="#C6C6C6"/>
</svg>
