<svg width="32" height="22" viewBox="0 0 32 22" fill="none" xmlns="http://www.w3.org/2000/svg">
<path d="M4.96253 12.3523C5.18111 12.3523 5.29951 12.3523 5.42702 12.3523C13.7423 12.3523 22.0485 12.3523 30.3637 12.3523C31.2836 12.3523 31.8574 11.9215 31.9849 11.1548C32.1033 10.4226 31.5113 9.69898 30.728 9.63007C30.5732 9.61284 30.4093 9.62145 30.2544 9.62145C21.9756 9.62145 13.6968 9.62145 5.41791 9.62145C5.29951 9.62145 5.18111 9.62145 5.0445 9.62145C5.08093 9.45778 5.19933 9.40609 5.2813 9.31994C7.71304 7.01985 10.1448 4.71976 12.5765 2.41105C13.4144 1.61851 13.1503 0.403856 12.0756 0.0765021C11.4927 -0.104404 10.9827 0.0420441 10.5455 0.446929C9.79868 1.15332 9.05186 1.85972 8.30503 2.56611C5.72757 5.00404 3.15011 7.44196 0.572649 9.87989C-0.19239 10.6035 -0.19239 11.3616 0.581758 12.0938C3.88783 15.2209 7.20301 18.348 10.5 21.4837C10.8916 21.8542 11.3379 22.0781 11.9025 21.9748C12.4763 21.8714 12.868 21.5526 13.041 21.0271C13.214 20.493 13.0683 20.0106 12.6403 19.6144C10.8005 17.8742 8.96078 16.1341 7.12104 14.3939C6.42886 13.7392 5.72757 13.0759 4.96253 12.3523Z" fill="#05418d"/>
</svg>
