<svg width="10" height="18" viewBox="0 0 10 18" fill="none" xmlns="http://www.w3.org/2000/svg">
<path d="M3.58731 17.971C3.58731 17.8984 3.57331 17.8259 3.57331 17.7678C3.57331 15.1702 3.57331 12.5725 3.57331 9.97487C3.57331 9.81524 3.53132 9.7717 3.37735 9.7717C2.60752 9.78621 1.83769 9.7717 1.05387 9.7717C0.927896 9.7717 0.899902 9.74268 0.899902 9.61207C0.899902 8.65428 0.899902 7.69649 0.899902 6.73869C0.899902 6.60809 0.941893 6.57906 1.05387 6.57906C1.83769 6.57906 2.62152 6.57906 3.40535 6.57906C3.53132 6.57906 3.55931 6.55004 3.55931 6.41943C3.55931 5.57773 3.54531 4.73604 3.57331 3.89434C3.6153 2.86399 3.89524 1.93523 4.59508 1.16609C5.11297 0.600122 5.77082 0.280859 6.49866 0.106715C7.11452 -0.0238932 7.73038 -0.00938117 8.34625 0.0196428C8.80815 0.0341548 9.27004 0.0776908 9.73194 0.106715C9.84391 0.106715 9.8999 0.135739 9.8999 0.280859C9.88591 1.13707 9.8999 1.99327 9.8999 2.84948C9.8999 2.98009 9.85791 2.9946 9.74594 2.9946C9.13007 2.9946 8.51421 2.96558 7.89835 3.02362C7.17051 3.08167 6.7646 3.50252 6.7506 4.24263C6.7366 4.98274 6.7506 5.72286 6.73661 6.47748C6.73661 6.60809 6.80659 6.59357 6.89057 6.59357C7.78637 6.59357 8.69617 6.59357 9.59197 6.59357C9.73194 6.59357 9.78793 6.60809 9.75993 6.78223C9.63396 7.72551 9.52199 8.6833 9.41001 9.62658C9.39601 9.75719 9.35402 9.80072 9.22805 9.80072C8.44423 9.78621 7.6744 9.80072 6.89057 9.80072C6.7786 9.80072 6.73661 9.81524 6.73661 9.94585C6.73661 12.6015 6.73661 15.2572 6.73661 17.9129C6.73661 17.942 6.7366 17.971 6.7506 18C5.71483 17.971 4.65107 17.971 3.58731 17.971Z" fill="#DAACAE"/>
</svg>
