<svg width="155" height="85" viewBox="0 0 155 85" fill="none" xmlns="http://www.w3.org/2000/svg">
<path d="M73.3162 0C79.8907 0 86.5649 0 93.1394 0C93.4383 0.39953 93.3387 0.898942 93.3387 1.29847C93.3387 3.59577 93.3387 5.89307 93.3387 8.19037C93.3387 10.6874 93.3387 13.2844 93.3387 15.7814C93.3387 16.3807 93.3387 16.98 93.3387 17.4794C86.5649 17.4794 79.7911 17.4794 73.0173 17.4794C73.0173 16.8801 73.0173 16.2808 73.0173 15.7814C73.0173 13.2844 73.0173 10.6874 73.0173 8.19037C73.0173 5.89307 73.0173 3.59577 73.0173 1.29847C73.0173 0.898942 73.0173 0.39953 73.3162 0ZM89.1549 8.49001C89.1549 8.29025 89.0553 8.19036 88.9556 8.09048C88.4576 7.59107 87.9595 7.09166 87.561 6.69213C87.063 6.19272 86.9633 6.19272 86.4653 6.69213C85.0707 8.09048 83.6761 9.48884 82.2815 10.8872C81.883 11.2867 81.6838 11.2867 81.3849 10.8872C80.9865 10.3878 80.4884 9.98825 80.09 9.58872C79.5919 9.08931 79.4923 9.08931 78.9942 9.58872C78.4961 10.0881 78.0977 10.4877 77.5996 10.9871C77.2011 11.3866 77.2011 11.6863 77.5996 11.9859C78.8946 13.2844 80.09 14.483 81.3849 15.7814C81.6838 16.0811 81.883 16.0811 82.2815 15.7814C84.473 13.4841 86.7641 11.2867 88.9556 9.08931C88.9556 8.78966 89.1549 8.68978 89.1549 8.49001Z" fill="#9A9A9A"/>
<path d="M53.3933 27.4676C55.5848 22.4735 57.6767 17.4794 59.8682 12.5851C60.4659 11.2867 61.0636 9.98819 61.5617 8.58984C61.6613 8.29019 61.8605 8.19031 62.1594 8.19031C65.7455 8.19031 69.232 8.19031 72.8181 8.19031C72.9177 8.19031 72.9177 8.19031 73.0173 8.19031C73.0173 10.6874 73.0173 13.2843 73.0173 15.7814C71.9216 15.7814 70.8258 15.7814 69.7301 15.7814C69.3316 15.7814 69.1324 15.9811 68.9332 16.2808C68.5347 17.1797 68.1362 17.9788 67.8374 18.8777C67.5386 19.477 67.8374 19.8766 68.5347 19.8766C70.0289 19.8766 71.5231 19.8766 73.0173 19.8766C73.3162 19.8766 73.5154 19.8766 73.8143 19.8766C80.09 19.8766 86.3657 19.8766 92.6414 19.8766C92.9402 19.8766 93.1395 19.8766 93.4383 19.8766C94.9325 19.8766 96.4267 19.8766 97.8213 19.8766C98.5186 19.8766 98.8175 19.477 98.5186 18.8777C98.1202 17.9788 97.8213 17.1797 97.4229 16.2808C97.3233 15.9811 97.0244 15.7814 96.626 15.7814C95.5302 15.7814 94.4344 15.7814 93.3387 15.7814C93.3387 13.2843 93.3387 10.6874 93.3387 8.19031C95.2314 8.19031 97.2236 8.19031 99.1163 8.19031C100.81 8.19031 102.404 8.19031 104.097 8.19031C104.396 8.19031 104.695 8.29019 104.794 8.58984C107.484 14.7826 110.174 20.9753 112.863 27.168C112.863 27.2679 112.963 27.3677 112.963 27.4676C110.771 27.4676 108.679 27.4676 106.488 27.4676C88.7564 27.4676 71.1247 27.4676 53.3933 27.4676Z" fill="#343794"/>
<path d="M73.0173 17.5794C72.9177 18.3784 72.9177 19.1775 72.9177 19.8767C71.4235 19.8767 69.9293 19.8767 68.4351 19.8767C67.7378 19.8767 67.5385 19.4771 67.7378 18.8779C68.1362 17.9789 68.5347 17.1798 68.8335 16.2809C68.9331 15.9813 69.232 15.7815 69.6304 15.7815C70.7262 15.7815 71.822 15.7815 72.9177 15.7815C73.0173 16.3808 73.0173 16.9801 73.0173 17.5794Z" fill="#00053D"/>
<path d="M93.4385 19.8766C93.4385 19.0776 93.5381 18.2785 93.3389 17.5794C93.3389 16.9801 93.3389 16.3808 93.3389 15.8813C94.4346 15.8813 95.5304 15.8813 96.6261 15.8813C97.0246 15.8813 97.2238 16.0811 97.4231 16.3808C97.8215 17.2797 98.22 18.0788 98.5188 18.9777C98.8177 19.6769 98.5188 19.9765 97.8215 19.9765C96.3273 19.8766 94.8331 19.8766 93.4385 19.8766Z" fill="#00053D"/>
<path d="M110.572 85C92.3424 85 74.0134 85 55.7839 85C55.7839 84.7003 55.6843 84.5006 55.6843 84.2009C55.6843 77.7086 55.6843 71.2162 55.6843 64.8237C65.9446 64.8237 76.1053 64.8237 86.3656 64.8237C94.4343 64.8237 102.603 64.8237 110.671 64.8237C110.671 64.9236 110.671 65.0235 110.671 65.0235C110.671 71.416 110.671 77.8085 110.671 84.3008C110.671 84.5006 110.572 84.7003 110.572 85Z" fill="#EC283D"/>
<path d="M55.6846 64.7238C55.6846 63.9248 55.6846 63.1257 55.585 62.3267C59.3703 62.3267 63.056 62.3267 66.8414 62.3267C81.4847 62.3267 96.0284 62.3267 110.672 62.3267C110.672 63.1257 110.672 63.9248 110.572 64.7238C102.503 64.7238 94.335 64.7238 86.2662 64.7238C76.1055 64.7238 65.9449 64.7238 55.6846 64.7238Z" fill="#930015"/>
<path d="M53.4929 52.4384C71.1247 52.4384 88.7564 52.4384 106.488 52.4384C108.679 52.4384 110.771 52.4384 112.963 52.4384C112.963 54.436 112.963 56.3338 112.963 58.3314C112.963 59.4301 112.963 60.6287 112.963 61.7274C112.963 62.127 112.863 62.3267 112.465 62.3267C111.867 62.3267 111.369 62.3267 110.771 62.3267C96.1279 62.3267 81.5842 62.3267 66.9409 62.3267C63.1555 62.3267 59.4698 62.3267 55.6844 62.3267C55.0868 62.3267 54.5887 62.3267 53.991 62.3267C53.7918 62.3267 53.5925 62.3267 53.4929 62.127C53.4929 59.2304 53.4929 56.3338 53.4929 53.4372C53.4929 53.0376 53.4929 52.738 53.4929 52.4384Z" fill="#EC283D"/>
<path d="M47.3617 34.0578L49.8575 34.9358C49.6455 35.9636 49.1592 36.8048 48.3987 37.4592C47.629 38.1183 46.569 38.4479 45.2185 38.4479C43.3749 38.4479 42.0107 37.9662 41.1257 37.003C40.2362 36.0443 39.7914 34.8736 39.7914 33.4909C39.7914 32.099 40.227 30.9168 41.0981 29.9443C41.9692 28.9718 43.1007 28.4856 44.4926 28.4856C45.6218 28.4856 46.5413 28.7644 47.2511 29.3221V28.6791H49.5602V32.1912H47.1612C47.0368 31.7533 46.8271 31.4076 46.5321 31.1542C46.2371 30.9053 45.9007 30.7808 45.5227 30.7808C44.4811 30.7808 43.9603 31.6773 43.9603 33.4702C43.9603 35.2677 44.4995 36.1664 45.578 36.1664C46.5229 36.1664 47.1174 35.4636 47.3617 34.0578ZM55.0357 31.1196L54.13 33.7813H55.8515L55.0357 31.1196ZM54.13 38.2958H50.3207V35.9936H51.0535L52.8579 30.9813H52.0836V28.6791H58.9971V30.9813H58.2228L60.0618 35.9936H60.7669V38.2958H55.7477V36.1872H56.5912L56.2248 34.9773H53.7636L53.3419 36.1872H54.13V38.2958ZM65.2607 38.2958H61.5343V35.9936H62.2741V30.9813H61.5136V28.6791H67.314L68.7313 32.3917L70.1831 28.6791H75.9489V30.9813H75.1954V35.9936H75.9697V38.2958H70.9505V35.9936H71.7179V30.6218L68.8142 38.2958H67.3762L64.5002 30.691V35.9936H65.2607V38.2958ZM81.8323 30.7877V32.5922H82.5582C83.0652 32.5922 83.4339 32.5322 83.6644 32.4124C83.8856 32.2926 83.9962 32.0598 83.9962 31.7141C83.9962 31.4883 83.9363 31.297 83.8165 31.1403C83.7012 30.9882 83.5468 30.8914 83.3533 30.85C83.1689 30.8085 82.8555 30.7877 82.413 30.7877H81.8323ZM82.8002 38.2958H77.1795V35.9936H78.1128V30.9813H77.1795V28.6791H83.0767C84.4318 28.6791 85.4227 28.8105 86.0495 29.0732C86.6763 29.3405 87.1372 29.7046 87.4322 30.1655C87.7272 30.6264 87.8747 31.1311 87.8747 31.6796C87.8747 32.3571 87.6995 32.9194 87.3492 33.3665C86.999 33.8181 86.5358 34.1454 85.9596 34.3482C85.3927 34.5464 84.517 34.6455 83.3325 34.6455H81.8323V35.9936H82.8002V38.2958ZM92.161 31.1196L91.2554 33.7813H92.9768L92.161 31.1196ZM91.2554 38.2958H87.446V35.9936H88.1789L89.9833 30.9813H89.209V28.6791H96.1225V30.9813H95.3481L97.1871 35.9936H97.8923V38.2958H92.8731V36.1872H93.7166L93.3501 34.9773H90.889L90.4672 36.1872H91.2554V38.2958ZM104.025 38.2958H98.5422V35.9936H99.4271V30.9813H98.5422V28.6791H104.025V30.9813H103.147V35.9936H104.025V38.2958ZM112.438 34.9842H111.457V33.1591H115.757C115.757 34.2099 115.683 34.9911 115.535 35.5027C115.393 35.9959 115.093 36.496 114.637 37.003C114.19 37.5053 113.648 37.8717 113.012 38.1022C112.376 38.3326 111.694 38.4479 110.966 38.4479C109.883 38.4479 108.899 38.2681 108.014 37.9086C107.124 37.5583 106.437 36.9776 105.953 36.1664C105.465 35.3691 105.221 34.4749 105.221 33.484C105.221 31.9861 105.714 30.7785 106.7 29.8613C107.677 28.9441 108.876 28.4856 110.295 28.4856C111.48 28.4856 112.408 28.7736 113.081 29.3497V28.6791H115.397V32.0391H113.081C112.878 31.6243 112.613 31.3109 112.286 31.0988C111.964 30.8868 111.586 30.7808 111.152 30.7808C110.544 30.7808 110.097 30.979 109.811 31.3754C109.53 31.7718 109.389 32.5 109.389 33.56C109.389 34.6155 109.537 35.3322 109.832 35.7101C110.131 36.0927 110.567 36.284 111.139 36.284C112.005 36.284 112.438 35.8507 112.438 34.9842ZM120.9 38.2958H116.953V35.9936H117.796V30.9813H116.953V28.6791H121.509L125.007 33.7052V30.9813H124.226V28.6791H128.104V30.9813H127.268V38.4202H124.101L120.05 32.606V35.9936H120.9V38.2958Z" fill="#EC283D"/>
<path d="M54.9172 51.4H45.7431V49.0978H46.4897V44.0856H45.7292V41.7834H54.9172V44.8599H52.3938V44.0856H50.2092V45.5651H52.1104V47.5216H50.2092V49.0978H52.3938V48.3235H54.9172V51.4ZM61.6579 51.4H56.0856V49.0978H57.1641L60.3167 46.6366L57.1641 44.0856H56.1409V41.7834H62.5428V43.809H61.5818L63.1996 45.2194L64.6307 43.809H63.8011V41.7834H69.1383V44.0856H67.7003L65.1077 46.2564L68.5437 49.0978H69.5047V51.4H63.0337V49.3744H64.043L62.2663 47.7704L60.6347 49.3744H61.6579V51.4ZM75.153 43.892V45.6964H75.8789C76.3859 45.6964 76.7546 45.6365 76.9851 45.5167C77.2063 45.3968 77.3169 45.1641 77.3169 44.8184C77.3169 44.5926 77.257 44.4013 77.1371 44.2446C77.0219 44.0925 76.8675 43.9957 76.6739 43.9542C76.4896 43.9127 76.1762 43.892 75.7337 43.892H75.153ZM76.1209 51.4H70.5002V49.0978H71.4335V44.0856H70.5002V41.7834H76.3974C77.7524 41.7834 78.7434 41.9147 79.3702 42.1774C79.997 42.4448 80.4579 42.8089 80.7529 43.2698C81.0479 43.7307 81.1954 44.2354 81.1954 44.7838C81.1954 45.4613 81.0202 46.0236 80.6699 46.4707C80.3197 46.9224 79.8564 47.2496 79.2803 47.4524C78.7134 47.6506 77.8377 47.7497 76.6532 47.7497H75.153V49.0978H76.1209V51.4ZM86.657 43.892V45.7241H87.0718C87.6157 45.7241 87.9844 45.7079 88.178 45.6757C88.3854 45.6434 88.5605 45.5512 88.7034 45.3991C88.8463 45.2562 88.9177 45.0604 88.9177 44.8115C88.9177 44.5626 88.8463 44.3644 88.7034 44.2169C88.5605 44.0648 88.3785 43.9726 88.1572 43.9404C87.9452 43.9081 87.5581 43.892 86.9958 43.892H86.657ZM87.3829 51.4H82.1563V49.0978H82.9376V44.0856H82.1563V41.7834H87.3829C87.853 41.7834 88.2886 41.7926 88.6896 41.811C89.0905 41.8249 89.4339 41.8479 89.7197 41.8802C90.0054 41.9078 90.2681 41.947 90.5078 41.9977C91.1807 42.1406 91.7269 42.4517 92.1463 42.931C92.5703 43.4196 92.7823 43.9957 92.7823 44.6594C92.7823 45.1572 92.6533 45.6088 92.3952 46.0144C92.1371 46.4154 91.7983 46.7104 91.3789 46.8994L92.7063 49.0978H93.3976V51.4H89.934L87.8392 47.4732H86.657V49.0978H87.3829V51.4ZM103.45 51.4H94.2757V49.0978H95.0223V44.0856H94.2618V41.7834H103.45V44.8599H100.926V44.0856H98.7418V45.5651H100.643V47.5216H98.7418V49.0978H100.926V48.3235H103.45V51.4ZM107.059 51.4H104.895V48.3166H107.059C107.317 49.1554 107.803 49.5749 108.517 49.5749C109.034 49.5749 109.292 49.3675 109.292 48.9527C109.292 48.736 109.202 48.5563 109.022 48.4134C108.829 48.2567 108.421 48.0401 107.798 47.7635C107.015 47.4086 106.439 47.1021 106.07 46.844C105.724 46.609 105.429 46.2841 105.185 45.8692C104.941 45.459 104.819 45.0051 104.819 44.5073C104.819 43.6131 105.109 42.9149 105.69 42.4125C106.266 41.9101 106.976 41.6589 107.819 41.6589C108.663 41.6589 109.377 41.8986 109.962 42.3779V41.7834H112.14V44.5211H109.99C109.727 43.7652 109.262 43.3873 108.593 43.3873C108.123 43.3873 107.888 43.5878 107.888 43.9888C107.888 44.1824 107.955 44.3275 108.089 44.4243C108.218 44.5257 108.635 44.7493 109.34 45.0949C110.285 45.5651 110.916 45.9084 111.234 46.125C111.396 46.231 111.559 46.3808 111.725 46.5744C111.896 46.7634 112.036 46.9593 112.147 47.1621C112.4 47.6137 112.527 48.1023 112.527 48.6277C112.527 49.4343 112.228 50.1164 111.628 50.6741C111.029 51.241 110.273 51.5245 109.361 51.5245C108.513 51.5245 107.745 51.2733 107.059 50.7709V51.4ZM115.908 51.4H113.744V48.3166H115.908C116.166 49.1554 116.652 49.5749 117.367 49.5749C117.883 49.5749 118.141 49.3675 118.141 48.9527C118.141 48.736 118.051 48.5563 117.871 48.4134C117.678 48.2567 117.27 48.0401 116.648 47.7635C115.864 47.4086 115.288 47.1021 114.919 46.844C114.574 46.609 114.279 46.2841 114.034 45.8692C113.79 45.459 113.668 45.0051 113.668 44.5073C113.668 43.6131 113.958 42.9149 114.539 42.4125C115.115 41.9101 115.825 41.6589 116.668 41.6589C117.512 41.6589 118.226 41.8986 118.812 42.3779V41.7834H120.989V44.5211H118.839C118.577 43.7652 118.111 43.3873 117.443 43.3873C116.973 43.3873 116.738 43.5878 116.738 43.9888C116.738 44.1824 116.804 44.3275 116.938 44.4243C117.067 44.5257 117.484 44.7493 118.189 45.0949C119.134 45.5651 119.766 45.9084 120.084 46.125C120.245 46.231 120.409 46.3808 120.575 46.5744C120.745 46.7634 120.886 46.9593 120.996 47.1621C121.25 47.6137 121.376 48.1023 121.376 48.6277C121.376 49.4343 121.077 50.1164 120.478 50.6741C119.879 51.241 119.123 51.5245 118.21 51.5245C117.362 51.5245 116.595 51.2733 115.908 50.7709V51.4Z" fill="#343794"/>
<path d="M16.1375 41.0518C10.7584 41.0518 5.37918 41.0518 0 41.0518C0 40.6523 0 40.2528 0 39.7534C5.47879 39.7534 10.9576 39.7534 16.4364 39.7534C17.7314 40.6523 16.3368 40.6523 16.1375 41.0518Z" fill="#343794"/>
<path d="M15.3406 28.9659C12.1529 28.9659 8.96525 28.9659 5.77759 28.9659C5.77759 28.6663 5.77759 28.2667 5.77759 27.9671C8.76602 27.9671 11.7545 27.9671 14.7429 27.9671C18.2294 28.067 21.7159 28.067 25.2024 28.1669C25.2024 28.4665 25.2024 28.866 25.1028 29.1657C21.9151 29.0658 18.6278 28.9659 15.3406 28.9659Z" fill="#343794"/>
<path d="M25.2024 29.0659C25.2024 28.7663 25.2024 28.3667 25.302 28.0671C29.8843 28.0671 34.3669 28.0671 38.9492 28.0671C38.9492 28.3667 38.9492 28.7663 38.9492 29.0659C34.3669 29.0659 29.7847 29.0659 25.2024 29.0659Z" fill="#343794"/>
<path d="M17.6316 34.1599C22.1142 34.1599 26.5969 34.1599 31.1792 34.1599C31.3784 34.4595 31.5776 34.7591 31.7768 35.0588C27.095 35.1587 22.4131 35.1587 17.7312 35.2586C17.7312 34.859 17.6316 34.4595 17.6316 34.1599Z" fill="#343794"/>
<path d="M17.6316 34.1599C17.6316 34.4596 17.6316 34.8591 17.7312 35.1587C17.3328 35.1587 16.9343 35.2586 16.5358 35.2586C11.9536 35.2586 7.47093 35.2586 2.88867 35.2586C4.58212 34.1599 6.37518 34.5594 8.16824 34.3597C8.46708 34.3597 8.66631 34.3597 8.96515 34.3597C11.2563 34.2598 13.5474 34.06 15.9382 33.9601C16.5358 34.06 17.0339 34.06 17.6316 34.1599Z" fill="#343794"/>
<path d="M23.0107 39.8532C24.7042 39.8532 26.298 39.8532 27.9915 39.8532C27.9915 40.1529 27.9915 40.4525 27.9915 40.7522C26.3976 41.1517 24.7042 40.9519 23.0107 40.9519C22.9111 40.5524 22.9111 40.2527 23.0107 39.8532Z" fill="#343794"/>
<path d="M31.7771 34.9589C31.5779 34.6592 31.3787 34.3596 31.1794 34.0599C32.6737 33.8602 34.1679 33.7603 35.5625 34.4595C34.2675 34.9589 33.0721 35.9577 31.7771 34.9589Z" fill="#343794"/>
<path d="M23.011 39.8532C23.011 40.1528 23.011 40.5524 23.011 40.852C21.5168 40.852 19.923 41.1517 17.9307 40.4525C19.8233 39.4537 21.4172 39.9531 23.011 39.8532Z" fill="#343794"/>
<path d="M140.157 48.9425C134.081 49.7415 128.004 49.5418 121.928 48.6428C121.928 48.4431 121.928 48.1434 121.928 47.9437C128.004 47.9437 134.181 47.9437 140.257 47.9437C140.157 48.2433 140.157 48.543 140.157 48.9425Z" fill="#EC283D"/>
<path d="M134.28 41.9509C141.154 41.9509 148.127 41.9509 155 41.9509C155 42.2509 155 42.5509 155 42.7509C148.127 42.7509 141.154 42.7509 134.28 42.7509C134.38 42.4509 134.38 42.1509 134.28 41.9509Z" fill="#EC283D"/>
<path d="M130.196 53.637C135.874 53.637 141.452 53.637 147.13 53.637C147.13 53.9367 147.13 54.2363 147.13 54.6358C141.652 54.6358 136.273 54.7357 130.794 54.7357C130.594 54.3362 130.395 53.9367 130.196 53.637Z" fill="#EC283D"/>
<path d="M134.28 41.9508C134.28 42.2504 134.28 42.5501 134.28 42.7498C130.893 43.0495 127.507 42.9496 124.12 42.7498C124.12 42.4502 124.12 42.1505 124.12 41.8509C127.507 41.9508 130.893 41.9508 134.28 41.9508Z" fill="#EC283D"/>
<path d="M130.196 53.6371C130.395 54.0366 130.594 54.3363 130.794 54.7358C128.004 54.7358 125.315 54.7358 122.526 54.8357C122.526 54.4362 122.526 54.0366 122.526 53.6371C125.016 53.5372 127.606 53.6371 130.196 53.6371Z" fill="#EC283D"/>
<path d="M140.157 48.9425C140.157 48.6428 140.157 48.2433 140.157 47.9437C143.744 47.9437 147.33 47.9437 150.916 47.9437C150.916 48.2433 150.916 48.6428 150.916 48.9425C147.33 48.9425 143.744 48.9425 140.157 48.9425Z" fill="#EC283D"/>
<path d="M122.526 53.5371C122.526 53.9366 122.526 54.3361 122.526 54.7356C120.733 54.6358 118.84 55.0353 117.047 54.1363C118.74 53.2374 120.633 53.6369 122.526 53.5371Z" fill="#EC283D"/>
<path d="M147.031 54.5359C147.031 54.2362 147.031 53.9366 147.031 53.537C148.724 53.537 150.518 53.537 152.609 53.537C150.816 55.2351 148.924 54.6358 147.031 54.5359Z" fill="#EC283D"/>
</svg>
