<svg width="21" height="24" viewBox="0 0 21 24" fill="none" xmlns="http://www.w3.org/2000/svg">
<path d="M10.5036 1.27375e-05C14.0776 0.0140026 16.9819 2.9029 16.9607 6.42834C16.9466 9.98176 14.0212 12.8567 10.4472 12.8357C6.90138 12.8147 4.00411 9.91881 4.01116 6.40037C4.03231 2.86793 6.94368 -0.00698218 10.5036 1.27375e-05ZM10.4965 1.67879C7.86714 1.67879 5.7171 3.80525 5.71005 6.41436C5.703 9.01647 7.86009 11.1639 10.4824 11.1709C13.1189 11.1779 15.283 9.03745 15.283 6.42135C15.276 3.80525 13.1259 1.67879 10.4965 1.67879Z" fill="#C6C6C6"/>
<path d="M10.5741 14.5075C13.1964 14.5494 15.6707 15.2699 17.8067 16.9627C19.4632 18.2777 20.5629 19.9425 20.9154 22.041C20.9718 22.3908 21 22.7475 21 23.1112C21 23.6079 20.6616 23.9856 20.1964 23.9996C19.7241 24.0136 19.3434 23.6708 19.3223 23.1812C19.3011 22.8384 19.2941 22.5027 19.2306 22.1669C18.8359 20.1944 17.6657 18.7744 16.002 17.7251C14.0776 16.508 11.9487 16.0673 9.68586 16.2282C7.705 16.3681 5.89333 16.9837 4.31428 18.2078C2.99606 19.2291 2.0867 20.5161 1.76948 22.1669C1.70604 22.5027 1.69194 22.8384 1.67784 23.1812C1.64964 23.6708 1.27603 24.0136 0.803727 23.9996C0.338473 23.9856 -0.00694334 23.6149 0.000105973 23.1182C0.000105973 22.9014 0.00715512 22.6845 0.028303 22.4677C0.338473 19.8236 1.76243 17.879 3.93362 16.4311C5.90743 15.102 8.12091 14.5355 10.5741 14.5075Z" fill="#C6C6C6"/>
</svg>
