<svg width="12" height="18" viewBox="0 0 12 18" fill="none" xmlns="http://www.w3.org/2000/svg">
<path d="M6.7376 15.2086C6.7376 15.0856 6.7376 15.019 6.7376 14.9473C6.7376 10.27 6.7376 5.59775 6.7376 0.920405C6.7376 0.402977 6.50266 0.0802251 6.08446 0.00850243C5.68506 -0.0580972 5.29035 0.274901 5.25276 0.715483C5.24337 0.802574 5.24806 0.894789 5.24806 0.981881C5.24806 5.63873 5.24806 10.2956 5.24806 14.9524C5.24806 15.019 5.24806 15.0856 5.24806 15.1625C5.15879 15.142 5.13059 15.0754 5.0836 15.0293C3.82901 13.6614 2.57441 12.2936 1.31512 10.9257C0.882824 10.4544 0.220285 10.603 0.0417279 11.2075C-0.0569481 11.5354 0.0229326 11.8222 0.243779 12.0682C0.629085 12.4882 1.01439 12.9083 1.3997 13.3284C2.72948 14.7782 4.05925 16.2281 5.38903 17.6779C5.78373 18.1082 6.19723 18.1082 6.59664 17.6728C8.30232 15.8131 10.008 13.9483 11.7184 12.0938C11.9204 11.8735 12.0426 11.6224 11.9862 11.3048C11.9298 10.9821 11.756 10.7618 11.4694 10.6644C11.178 10.5671 10.9149 10.6491 10.6987 10.8899C9.74957 11.9247 8.8004 12.9596 7.85123 13.9944C7.49412 14.3838 7.13231 14.7782 6.7376 15.2086Z" fill="#D9D9D9"/>
</svg>
