<svg width="16" height="18" viewBox="0 0 16 18" fill="none" xmlns="http://www.w3.org/2000/svg">
<path d="M11.8748 0C11.9763 1.69647 11.2652 2.89397 9.9446 3.7921C9.43667 4.09148 8.92873 4.19127 8.31921 4.19127C8.21763 4.19127 8.21763 4.09148 8.21763 4.09148C8.21763 2.99376 8.52239 2.09563 9.33508 1.2973C9.9446 0.598753 10.7573 0.199584 11.6716 0C11.6716 0 11.6716 0 11.7732 0H11.8748Z" fill="#DAACAE"/>
<path d="M0.700195 9.87942C0.700195 8.58212 1.00496 7.38462 1.71606 6.2869C2.52876 5.18919 3.54463 4.59044 4.86526 4.39085C5.37319 4.29106 5.98271 4.39085 6.49065 4.59044C6.99858 4.79002 7.40493 4.9896 7.81128 5.0894C8.21763 5.18919 8.52239 5.18919 8.92873 5.0894C9.53825 4.88981 10.2494 4.59044 10.8589 4.49064C11.6716 4.29106 12.5859 4.39085 13.3986 4.69023C14.1097 4.9896 14.7192 5.38877 15.2271 6.08732C15.3287 6.18711 15.3287 6.18711 15.2271 6.2869C14.6176 6.68607 14.2113 7.08524 13.8049 7.68399C13.297 8.58212 13.297 9.48025 13.3986 10.3784C13.6017 11.6757 14.4144 12.5738 15.5319 13.1726C15.7351 13.2724 15.7351 13.2723 15.6335 13.4719C15.1255 14.869 14.3128 16.1663 13.297 17.264C12.5859 17.9626 11.7732 18.1622 10.7573 17.8628C10.351 17.763 10.0462 17.5634 9.63984 17.4636C8.82715 17.1642 8.11604 17.264 7.30334 17.4636C6.79541 17.6632 6.38906 17.8628 5.88113 17.9626C5.27161 18.0624 4.76367 17.9626 4.35732 17.6632C3.95098 17.3638 3.64622 17.0644 3.34145 16.6653C2.12241 15.1684 1.20813 13.4719 0.903369 11.4761C0.801782 11.0769 0.700195 10.4782 0.700195 9.87942Z" fill="#DAACAE"/>
</svg>
