<svg width="15" height="18" viewBox="0 0 15 18" fill="none" xmlns="http://www.w3.org/2000/svg">
<path d="M7.55793 17.9953C6.64186 17.1215 5.80095 16.1866 4.99762 15.2095C3.82317 13.7767 2.75677 12.2687 1.94875 10.5963C1.48836 9.6473 1.12193 8.66545 0.980999 7.60845C0.769597 6.06287 1.07495 4.61125 1.88298 3.28177C2.97287 1.4919 4.57012 0.406707 6.64186 0.0825578C9.7612 -0.410712 12.7866 1.34627 13.9469 4.2871C14.5859 5.90314 14.5436 7.52858 13.9751 9.15872C13.4537 10.662 12.6644 12.0244 11.7625 13.321C10.6303 14.9464 9.3478 16.4403 7.94315 17.8356C7.88678 17.892 7.82571 17.9436 7.76933 18C7.69887 17.9953 7.6284 17.9953 7.55793 17.9953ZM4.57012 6.76284C4.57012 8.45875 5.97007 9.8446 7.68007 9.83991C9.36659 9.83521 10.7524 8.44935 10.7571 6.76754C10.7618 5.05754 9.37598 3.65289 7.68477 3.65759C5.95128 3.65759 4.57012 5.03405 4.57012 6.76284Z" fill="#D9D9D9"/>
</svg>
