<svg width="13" height="11" viewBox="0 0 13 11" fill="none" xmlns="http://www.w3.org/2000/svg">
<path d="M0.0996094 8.84651C0.0996094 7.50274 0.0996094 6.15897 0.0996094 4.81519C0.105874 4.81519 0.115271 4.81519 0.121536 4.81832C1.97901 5.43853 3.83649 6.0556 5.69397 6.6758C5.96335 6.76664 6.22647 6.76977 6.49585 6.67893C8.27815 6.08379 10.0636 5.49178 11.8459 4.89663C11.9273 4.86844 12.0088 4.84338 12.0996 4.81519C12.0996 4.84652 12.0996 4.86218 12.0996 4.87784C12.0996 6.12764 12.0996 7.37745 12.0996 8.62725C12.0996 8.68677 12.0965 8.74315 12.0871 8.80266C11.9743 9.52937 11.423 9.99922 10.6838 10.0023C9.4841 10.0023 8.28442 10.0023 7.08786 10.0023C5.23038 10.0023 3.36977 10.0023 1.5123 10.0023C0.826313 10.0023 0.306344 9.59828 0.134065 8.94049C0.124668 8.90916 0.14033 8.86531 0.0996094 8.84651Z" fill="#C6C6C6"/>
<path d="M0.0996094 2.65701C0.14033 2.63821 0.1278 2.59436 0.134065 2.56304C0.306344 1.91151 0.826313 1.50431 1.49977 1.50117C2.31104 1.49804 3.12545 1.50117 3.93673 1.50117C4.09961 1.50117 4.09648 1.50117 4.10274 1.33203C4.10587 1.14409 4.08395 0.956147 4.1278 0.771339C4.23117 0.332811 4.60705 0.0101801 5.05811 0.00704777C5.75349 -0.00234926 6.44887 -0.00234926 7.14425 0.00704777C7.66108 0.0133125 8.07455 0.436179 8.09334 0.949883C8.09961 1.0971 8.10274 1.24745 8.09334 1.39467C8.09021 1.48551 8.1184 1.50431 8.20611 1.50431C9.03305 1.50117 9.86312 1.50117 10.6901 1.50117C11.3729 1.50117 11.9023 1.91464 12.062 2.56617C12.0871 2.66954 12.0996 2.77291 12.0996 2.8794C12.0996 3.22709 12.0965 3.57478 12.0996 3.92247C12.0996 3.98825 12.0902 4.02271 12.015 4.04777C10.0886 4.68677 8.16539 5.3289 6.24213 5.97103C6.1325 6.00861 6.02913 5.99608 5.92263 5.96163C4.01817 5.32576 2.11057 4.6899 0.206109 4.05717C0.171653 4.04464 0.137197 4.01958 0.0996094 4.03837C0.0996094 3.58105 0.0996094 3.12059 0.0996094 2.65701ZM6.10431 1C5.80047 1 5.49663 1.00313 5.1928 0.996868C5.11449 0.996868 5.08943 1.01879 5.09569 1.0971C5.10196 1.2036 5.10196 1.30697 5.09569 1.41347C5.09256 1.48238 5.11136 1.51057 5.18653 1.50744C5.31496 1.50117 5.44338 1.50431 5.57181 1.50431C6.04793 1.50431 6.52404 1.50117 7.00016 1.50744C7.0816 1.50744 7.10979 1.48551 7.10352 1.40407C7.09726 1.30697 7.09726 1.20987 7.10352 1.11276C7.10979 1.02819 7.08473 1 6.99389 1C6.69945 1.00313 6.40188 1 6.10431 1Z" fill="#C6C6C6"/>
</svg>
