<svg width="9" height="12" viewBox="0 0 9 12" fill="none" xmlns="http://www.w3.org/2000/svg">
<path d="M4.42794 11.9969C3.81723 11.4143 3.25662 10.7911 2.72107 10.1397C1.9381 9.18445 1.22717 8.17912 0.688488 7.06417C0.381564 6.43153 0.137278 5.77697 0.0433219 5.0723C-0.0976123 4.04191 0.105959 3.07416 0.644642 2.18784C1.37124 0.9946 2.43607 0.271138 3.81723 0.0550386C5.89679 -0.273808 7.91372 0.897512 8.68729 2.85806C9.11322 3.93543 9.08504 5.01906 8.70608 6.10582C8.35844 7.10802 7.83229 8.01626 7.23097 8.88066C6.47619 9.96428 5.62119 10.9602 4.68476 11.8904C4.64717 11.928 4.60646 11.9624 4.56888 12C4.5219 11.9969 4.47492 11.9969 4.42794 11.9969ZM2.43607 4.50856C2.43607 5.63917 3.36937 6.56307 4.50937 6.55994C5.63371 6.55681 6.55762 5.6329 6.56075 4.51169C6.56388 3.37169 5.63998 2.43526 4.5125 2.43839C3.35684 2.43839 2.43607 3.35603 2.43607 4.50856Z" fill="#C6C6C6"/>
</svg>
