<svg width="12" height="12" viewBox="0 0 12 12" fill="none" xmlns="http://www.w3.org/2000/svg">
<path d="M11.9875 11.9969C8.03026 11.9969 4.07305 11.9969 0.115836 12C0.0250457 12 0 11.9875 0 11.8873C0.00313071 10.1435 0.00313071 8.39969 0.00313071 6.65588C0.0563527 6.64962 0.0876598 6.69032 0.125228 6.71537C2.05061 7.93008 3.97913 9.14479 5.90451 10.3626C5.97652 10.4065 6.02035 10.4033 6.08922 10.3626C7.91443 9.23872 9.74276 8.11479 11.5711 6.99087C11.7057 6.90947 11.8403 6.82807 11.9906 6.73728C11.9875 8.503 11.9875 10.2499 11.9875 11.9969Z" fill="#C6C6C6"/>
<path d="M0 4.78059C0.209757 4.65223 0.391338 4.4863 0.588573 4.34229C0.660579 4.28907 0.729455 4.23272 0.810853 4.17323C0.810853 4.85886 0.810853 5.53196 0.810853 6.22385C0.535351 6.05166 0.269241 5.88573 0 5.71667C0 5.40673 0 5.09366 0 4.78059Z" fill="#C6C6C6"/>
<path d="M5.9953 0.00313071C7.44169 0.00313071 8.89121 0.00313071 10.3376 0C10.4315 0 10.466 0.0125228 10.466 0.122098C10.4628 2.29794 10.4628 4.47065 10.4628 6.64649C10.4628 6.7185 10.4503 6.76546 10.3814 6.80616C8.94756 7.68275 7.5137 8.56561 6.08296 9.44847C6.01722 9.48917 5.97339 9.48917 5.90764 9.44847C4.48004 8.5437 3.04931 7.64206 1.61858 6.74354C1.54344 6.69658 1.51526 6.64962 1.51526 6.55883C1.51839 4.4143 1.51839 2.27289 1.51526 0.128359C1.51526 0.0313071 1.53092 0 1.63736 0C3.09314 0.00313071 4.54579 0.00313071 5.9953 0.00313071ZM4.88703 5.5977C4.78685 5.61023 4.66475 5.57892 4.54892 5.61336C4.54892 5.75424 4.57396 5.89199 4.62718 6.02348C4.79937 6.44613 5.11871 6.70597 5.54761 6.83746C5.61649 6.85938 5.64153 6.88442 5.6384 6.95643C5.63214 7.08166 5.6384 7.20689 5.63527 7.33212C5.63527 7.38221 5.64153 7.41038 5.70415 7.40725C5.89199 7.40412 6.07983 7.40412 6.26454 7.40725C6.33029 7.41038 6.33968 7.38221 6.33968 7.32585C6.33655 7.19749 6.33968 7.06914 6.33655 6.94078C6.33342 6.88442 6.3522 6.85625 6.40856 6.84373C6.52752 6.81555 6.6371 6.76546 6.74354 6.70597C7.4323 6.31777 7.63579 5.48813 7.18184 4.87451C6.89695 4.48943 6.49622 4.30785 6.02348 4.2922C5.81059 4.28594 5.61336 4.23898 5.45056 4.0981C5.18758 3.87582 5.18132 3.52518 5.43178 3.29037C5.58205 3.14949 5.76363 3.09314 5.964 3.08375C6.34594 3.07122 6.62144 3.26846 6.71537 3.63788C6.72789 3.6911 6.7592 3.68171 6.7905 3.68171C6.95017 3.68171 7.10984 3.68171 7.2695 3.68171C7.43543 3.68171 7.43856 3.68171 7.41038 3.51578C7.31646 3.00235 7.00652 2.66736 6.53379 2.47952C6.33968 2.40125 6.33968 2.40438 6.33655 2.19463C6.33342 2.09131 6.38351 1.95356 6.31464 1.89408C6.25515 1.84399 6.12053 1.87842 6.02035 1.87842C5.89512 1.87842 5.72919 1.83459 5.66032 1.89721C5.58205 1.96921 5.63214 2.13827 5.6384 2.26663C5.6478 2.3856 5.61023 2.44508 5.49126 2.46387C5.42865 2.47326 5.36603 2.5077 5.30655 2.53587C4.51448 2.90843 4.29533 3.85703 4.85886 4.49883C5.15001 4.83068 5.52883 4.98409 5.96713 4.99348C6.1988 4.99974 6.40543 5.06235 6.56822 5.23141C6.76233 5.43491 6.77172 5.72606 6.58701 5.94208C6.43047 6.12053 6.22698 6.1988 5.9953 6.1988C5.69163 6.1988 5.40673 6.09862 5.30342 5.79807C5.23454 5.59457 5.13436 5.58518 4.97469 5.5977C4.95278 5.60083 4.93086 5.5977 4.88703 5.5977Z" fill="#C6C6C6"/>
<path d="M11.1704 6.3209C11.1704 5.59457 11.1704 4.89016 11.1704 4.1701C11.4396 4.37673 11.6963 4.57396 11.9562 4.7712C11.9875 4.79311 11.9875 4.82129 11.9875 4.8526C11.9875 5.15314 11.9875 5.45369 11.9875 5.75424C11.9875 5.78868 11.9906 5.81998 11.9499 5.8419C11.6932 5.99843 11.4396 6.15497 11.1704 6.3209Z" fill="#C6C6C6"/>
</svg>
