<svg width="18" height="18" viewBox="0 0 18 18" fill="none" xmlns="http://www.w3.org/2000/svg">
<path d="M17.9953 15.8575C17.9389 15.8387 17.9483 15.7776 17.9389 15.74C17.8544 15.4158 17.6853 15.1386 17.4504 14.9037C16.2714 13.7197 15.0924 12.5403 13.9134 11.3563C13.8241 11.267 13.7912 11.2764 13.7302 11.3798C13.1195 12.3336 12.3351 13.1182 11.3815 13.7338C11.2829 13.7948 11.2688 13.8277 11.358 13.917C12.5465 15.0963 13.7255 16.285 14.9139 17.4644C15.1863 17.7369 15.5057 17.9154 15.8956 17.9671C15.9097 17.9671 15.9191 17.9859 15.9285 18C16.1258 18 16.3278 18 16.5251 18C16.5391 17.9483 16.5908 17.9577 16.6237 17.9483C17.3142 17.7557 17.7557 17.314 17.9483 16.6233C17.9577 16.5904 17.9436 16.5388 18 16.52C17.9953 16.2991 17.9953 16.0783 17.9953 15.8575Z" fill="#D9D9D9"/>
<path d="M0 7.17463C0 11.1261 3.22234 14.3446 7.17276 14.3399C11.1279 14.3305 14.3455 11.1026 14.3361 7.16053C14.3267 3.19499 11.1138 -0.00469334 7.13987 5.16795e-06C3.20355 0.00470368 0 3.22318 0 7.17463ZM11.87 7.278C11.7855 9.89037 9.62474 11.953 7.06002 11.8731C4.41075 11.7886 2.38152 9.62725 2.46607 6.97729C2.54593 4.40251 4.75365 2.37745 7.37004 2.46672C9.89718 2.5513 11.9499 4.7502 11.87 7.278Z" fill="#D9D9D9"/>
</svg>
