<svg width="12" height="12" viewBox="0 0 12 12" fill="none" xmlns="http://www.w3.org/2000/svg">
<path fill-rule="evenodd" clip-rule="evenodd" d="M6 12C7.59128 12 9.11745 11.3678 10.2427 10.2427C11.3678 9.11745 12 7.59128 12 6C12 4.4087 11.3678 2.88258 10.2427 1.75736C9.11745 0.632138 7.59128 0 6 0C4.4087 0 2.88258 0.632138 1.75736 1.75736C0.632138 2.88258 0 4.4087 0 6C0 7.59128 0.632138 9.11745 1.75736 10.2427C2.88258 11.3678 4.4087 12 6 12ZM6.75 3C6.75 2.80109 6.67095 2.61032 6.53032 2.46967C6.3897 2.32902 6.1989 2.25 6 2.25C5.80109 2.25 5.61032 2.32902 5.46967 2.46967C5.32902 2.61032 5.25 2.80109 5.25 3V6C5.25004 6.1989 5.32909 6.38962 5.46975 6.53025L7.59075 8.652C7.66043 8.72168 7.74315 8.77695 7.8342 8.81468C7.92525 8.8524 8.02282 8.87182 8.12137 8.87182C8.21992 8.87182 8.3175 8.8524 8.40855 8.81468C8.4996 8.77695 8.58233 8.72168 8.652 8.652C8.72168 8.58233 8.77695 8.4996 8.81468 8.40855C8.8524 8.3175 8.87182 8.21992 8.87182 8.12137C8.87182 8.02282 8.8524 7.92525 8.81468 7.8342C8.77695 7.74315 8.72168 7.66043 8.652 7.59075L6.75 5.6895V3Z" fill="#C6C6C6"/>
</svg>
