<svg width="19" height="18" viewBox="0 0 19 18" fill="none" xmlns="http://www.w3.org/2000/svg">
<path d="M11.8904 13.7411C12.9007 13.128 13.6688 12.2933 14.1533 11.2114C14.1791 11.1547 14.2049 11.0929 14.2255 11.0311C14.2306 11.0156 14.2358 10.995 14.2358 10.9744C14.1688 10.9383 14.0966 10.9589 14.0296 10.9589C12.7616 10.9589 11.4987 10.9589 10.2306 10.9589C9.74091 10.9589 9.53473 10.7477 9.53473 10.2531C9.53473 9.53176 9.53473 8.81561 9.53473 8.0943C9.53473 7.66667 9.76153 7.44513 10.1894 7.44513C12.5811 7.44513 14.9729 7.44513 17.3595 7.44513C17.7925 7.44513 18.009 7.63061 18.0606 8.06854C18.3492 10.4901 17.7204 12.6591 16.2307 14.5758C15.5709 15.4259 14.7616 16.1163 13.844 16.6779C13.777 16.7191 13.71 16.75 13.643 16.7861C13.0605 15.7711 12.4729 14.7561 11.8904 13.7411Z" fill="#DAACAE"/>
<path d="M1.3594 13.499C0.921249 12.8034 0.622277 12.0512 0.421245 11.2577C-0.15608 8.95472 0.122273 6.75988 1.25115 4.6681C1.28208 4.61142 1.31816 4.5599 1.35424 4.50838C2.36456 5.09057 3.37488 5.67277 4.3852 6.26012C4.1687 6.70321 3.9522 7.1463 3.83365 7.62545C3.48828 9.01655 3.64292 10.3458 4.32334 11.6081C4.34911 11.6545 4.36458 11.7008 4.3852 11.7472C3.38003 12.3346 2.36971 12.9168 1.3594 13.499Z" fill="#DAACAE"/>
<path d="M4.39035 6.26012C3.38003 5.67792 2.36971 5.09573 1.3594 4.50838C1.73053 3.80253 2.22538 3.18942 2.78724 2.63298C4.20478 1.22643 5.90583 0.381471 7.87492 0.087796C8.28729 0.0259697 8.70482 -0.0152478 9.12235 0.00536095C9.12235 1.17491 9.12235 2.34446 9.12235 3.50885C8.45224 3.53976 7.7976 3.63766 7.16872 3.89011C6.03985 4.33835 5.15324 5.08027 4.50375 6.1004C4.46252 6.15708 4.42643 6.2086 4.39035 6.26012Z" fill="#DAACAE"/>
<path d="M1.3594 13.499C2.36971 12.9168 3.38003 12.3346 4.39035 11.7524C4.66355 12.1542 4.9419 12.5561 5.29242 12.8961C6.28727 13.8545 7.4677 14.3954 8.84915 14.4727C8.93678 14.4779 9.02957 14.4882 9.1172 14.4933C9.1172 15.6629 9.1172 16.8324 9.1172 17.9968C7.72028 18.0071 6.39552 17.6877 5.14809 17.0694C3.58107 16.2914 2.34394 15.1425 1.43156 13.6484C1.40579 13.602 1.38517 13.5505 1.3594 13.499Z" fill="#DAACAE"/>
<path d="M9.12235 3.514C9.12235 2.34446 9.12235 1.17491 9.12235 0.0105132C10.3852 -0.0204 11.5863 0.252666 12.7409 0.757581C13.5657 1.11308 14.3131 1.59739 14.9935 2.17959C15.308 2.4475 15.3389 2.81331 15.0502 3.10183C14.5141 3.64796 13.9729 4.18894 13.4265 4.72477C13.1791 4.97207 12.8646 4.98753 12.5915 4.77114C11.8337 4.15803 10.9729 3.77161 10.0141 3.60674C9.72029 3.55007 9.41617 3.56553 9.12235 3.514Z" fill="#DAACAE"/>
<path d="M9.12235 17.9968C9.12235 16.8273 9.12235 15.6577 9.12235 14.4933C9.43163 14.4367 9.74091 14.4573 10.0502 14.4006C10.6636 14.2872 11.2409 14.0863 11.7873 13.7875C11.8182 13.7669 11.8595 13.7566 11.8904 13.7411C12.4729 14.7561 13.0605 15.7711 13.643 16.7861C13.1894 17.0952 12.6894 17.3013 12.1791 17.4816C11.1945 17.8319 10.1739 18.0277 9.12235 17.9968Z" fill="#DAACAE"/>
</svg>
